HIERARCHY
ROOT hip
{
  OFFSET 0 0 0
  CHANNELS 6 Xposition Yposition Zposition Zrotation Yrotation Xrotation
  JOINT abdomen
  {
    OFFSET 0 20.6881 -0.73152
    CHANNELS 3 Zrotation Xrotation Yrotation
    JOINT chest
    {
      OFFSET 0 11.7043 -0.48768
      CHANNELS 3 Zrotation Xrotation Yrotation
      JOINT neck
      {
        OFFSET 0 22.1894 -2.19456
        CHANNELS 3 Zrotation Xrotation Yrotation
        JOINT head
        {
          OFFSET -0.24384 7.07133 1.2192
          CHANNELS 3 Zrotation Xrotation Yrotation
          JOINT leftEye
          {
            OFFSET 4.14528 8.04674 8.04672
            CHANNELS 3 Zrotation Xrotation Yrotation
            End Site
            {
              OFFSET 1 0 0
            }
          }
          JOINT rightEye
          {
            OFFSET -3.6576 8.04674 8.04672
            CHANNELS 3 Zrotation Xrotation Yrotation
            End Site
            {
              OFFSET 1 0 0
            }
          }
        }
      }
      JOINT rCollar
      {
        OFFSET -2.68224 19.2634 -4.8768
        CHANNELS 3 Zrotation Xrotation Yrotation
        JOINT rShldr
        {
          OFFSET -8.77824 -1.95073 1.46304
          CHANNELS 3 Zrotation Xrotation Yrotation
          JOINT rForeArm
          {
            OFFSET -28.1742 -1.7115 0.48768
            CHANNELS 3 Zrotation Xrotation Yrotation
            JOINT rHand
            {
              OFFSET -22.5879 0.773209 7.07136
              CHANNELS 3 Zrotation Xrotation Yrotation
              JOINT rThumb1
              {
                OFFSET -1.2192 -0.487915 3.41376
                CHANNELS 3 Zrotation Xrotation Yrotation
                JOINT rThumb2
                {
                  OFFSET -3.37035 -0.52449 3.41376
                  CHANNELS 3 Zrotation Xrotation Yrotation
                  End Site
                  {
                    OFFSET -1.78271 -1.18214 1.43049
                  }
                }
              }
              JOINT rIndex1
              {
                OFFSET -7.75947 0.938293 5.60832
                CHANNELS 3 Zrotation Xrotation Yrotation
                JOINT rIndex2
                {
                  OFFSET -2.54057 -0.884171 1.56538
                  CHANNELS 3 Zrotation Xrotation Yrotation
                  End Site
                  {
                    OFFSET -1.62519 -0.234802 1.16502
                  }
                }
              }
              JOINT rMid1
              {
                OFFSET -8.24714 1.18213 3.41376
                CHANNELS 3 Zrotation Xrotation Yrotation
                JOINT rMid2
                {
                  OFFSET -3.10165 -0.590103 1.0647
                  CHANNELS 3 Zrotation Xrotation Yrotation
                  End Site
                  {
                    OFFSET -2.48547 -0.328903 0.83742
                  }
                }
              }
              JOINT rRing1
              {
                OFFSET -8.82822 0.546677 1.51678
                CHANNELS 3 Zrotation Xrotation Yrotation
                JOINT rRing2
                {
                  OFFSET -2.60934 -0.819778 -0.0198488
                  CHANNELS 3 Zrotation Xrotation Yrotation
                  End Site
                  {
                    OFFSET -2.33842 -0.294052 0.168128
                  }
                }
              }
              JOINT rPinky1
              {
                OFFSET -8.27202 -0.0477905 -0.4584
                CHANNELS 3 Zrotation Xrotation Yrotation
                JOINT rPinky2
                {
                  OFFSET -1.82734 -0.647385 -0.700984
                  CHANNELS 3 Zrotation Xrotation Yrotation
                  End Site
                  {
                    OFFSET -1.69225 -0.51767 -0.607171
                  }
                }
              }
            }
          }
        }
      }
      JOINT lCollar
      {
        OFFSET 2.68224 19.2634 -4.8768
        CHANNELS 3 Zrotation Xrotation Yrotation
        JOINT lShldr
        {
          OFFSET 8.77824 -1.95073 1.46304
          CHANNELS 3 Zrotation Xrotation Yrotation
          JOINT lForeArm
          {
            OFFSET 28.1742 -1.7115 0.48768
            CHANNELS 3 Zrotation Xrotation Yrotation
            JOINT lHand
            {
              OFFSET 22.5879 0.773209 7.07136
              CHANNELS 3 Zrotation Xrotation Yrotation
              JOINT lThumb1
              {
                OFFSET 1.2192 -0.487915 3.41376
                CHANNELS 3 Zrotation Xrotation Yrotation
                JOINT lThumb2
                {
                  OFFSET 3.37035 -0.52449 3.41376
                  CHANNELS 3 Zrotation Xrotation Yrotation
                  End Site
                  {
                    OFFSET 1.78271 -1.18214 1.43049
                  }
                }
              }
              JOINT lIndex1
              {
                OFFSET 7.75947 0.938293 5.60832
                CHANNELS 3 Zrotation Xrotation Yrotation
                JOINT lIndex2
                {
                  OFFSET 2.54057 -0.884171 1.56538
                  CHANNELS 3 Zrotation Xrotation Yrotation
                  End Site
                  {
                    OFFSET 1.62519 -0.234802 1.16502
                  }
                }
              }
              JOINT lMid1
              {
                OFFSET 8.24714 1.18213 3.41376
                CHANNELS 3 Zrotation Xrotation Yrotation
                JOINT lMid2
                {
                  OFFSET 3.10165 -0.590103 1.0647
                  CHANNELS 3 Zrotation Xrotation Yrotation
                  End Site
                  {
                    OFFSET 2.48547 -0.328903 0.83742
                  }
                }
              }
              JOINT lRing1
              {
                OFFSET 8.82822 0.546677 1.51678
                CHANNELS 3 Zrotation Xrotation Yrotation
                JOINT lRing2
                {
                  OFFSET 2.60934 -0.819778 -0.0198488
                  CHANNELS 3 Zrotation Xrotation Yrotation
                  End Site
                  {
                    OFFSET 2.33842 -0.294052 0.168128
                  }
                }
              }
              JOINT lPinky1
              {
                OFFSET 8.27202 -0.0477905 -0.4584
                CHANNELS 3 Zrotation Xrotation Yrotation
                JOINT lPinky2
                {
                  OFFSET 1.82734 -0.647385 -0.700984
                  CHANNELS 3 Zrotation Xrotation Yrotation
                  End Site
                  {
                    OFFSET 1.69225 -0.51767 -0.607171
                  }
                }
              }
            }
          }
        }
      }
    }
  }
  JOINT rButtock
  {
    OFFSET -8.77824 4.35084 1.2192
    CHANNELS 3 Zrotation Xrotation Yrotation
    JOINT rThigh
    {
      OFFSET 0 -1.70687 -2.19456
      CHANNELS 3 Zrotation Xrotation Yrotation
      JOINT rShin
      {
        OFFSET 0 -36.8199 0.73152
        CHANNELS 3 Zrotation Xrotation Yrotation
        JOINT rFoot
        {
          OFFSET 0.73152 -45.1104 -5.12064
          CHANNELS 3 Zrotation Xrotation Yrotation
          End Site
          {
            OFFSET -1.1221 -3.69964 12.103
          }
        }
      }
    }
  }
  JOINT lButtock
  {
    OFFSET 8.77824 4.35084 1.2192
    CHANNELS 3 Zrotation Xrotation Yrotation
    JOINT lThigh
    {
      OFFSET 0 -1.70687 -2.19456
      CHANNELS 3 Zrotation Xrotation Yrotation
      JOINT lShin
      {
        OFFSET 0 -36.8199 0.73152
        CHANNELS 3 Zrotation Xrotation Yrotation
        JOINT lFoot
        {
          OFFSET -0.73152 -45.1104 -5.12064
          CHANNELS 3 Zrotation Xrotation Yrotation
          End Site
          {
            OFFSET 1.1221 -3.69964 12.103
          }
        }
      }
    }
  }
}
MOTION
Frames:	4
Frame Time:	0.03333
0.003273598849773407 -2.030709944665432 -0.008389074355363846 -4.326866149902344 0.3176535367965698 5.221192836761475 -2.497706651687622 14.00943374633789 3.0365006923675537 3.179596424102783 -9.343562126159668 0.7450384497642517 -5.749212741851807 15.279295921325684 -4.925992488861084 9.632264137268066 -23.782718658447266 -7.339435577392578 -0.15852412581443787 0.307129830121994 0.13993315398693085 0.04409313201904297 -0.24959561228752136 0.2093040943145752 -0.0805043950676918 0.08268817514181137 -0.23674827814102173 49.060176849365234 38.52799987792969 15.328439712524414 -26.548370361328125 -25.8375301361084 60.75691223144531 -0.3020195960998535 -10.23039722442627 -1.3425891399383545 0.11850397288799286 0.12236338108778 0.12035899609327316 0.013064374215900898 -0.10528817027807236 0.313244104385376 -0.10185888409614563 0.0034979854244738817 0.4139236807823181 7.940112590789795 4.875776290893555 0.397268682718277 -0.07898510247468948 0.1737900674343109 -0.1789560765028 2.912759304046631 0.7610416412353516 -0.2291356325149536 0.15962933003902435 0.08943038433790207 -0.515582799911499 10.192805290222168 0.6637741923332214 0.08161606639623642 0.25729984045028687 0.5594401955604553 0.007153221871703863 2.1713199615478516 -0.5956211090087891 0.11058471351861954 -0.07011811435222626 -0.11977458745241165 -0.005745280999690294 -55.92975616455078 39.48768997192383 -26.267902374267578 25.73807144165039 -22.14715003967285 -55.45231246948242 -0.10367540270090103 -8.503158569335938 1.223750352859497 0.0003446945338509977 0.22074106335639954 -0.12781545519828796 -0.1599649041891098 -0.13972260057926178 0.29398468136787415 0.3288154900074005 0.04428194463253021 -0.059590764343738556 -7.6996660232543945 5.3198933601379395 -0.8150258660316467 -0.17785140872001648 0.04555109143257141 0.12469495832920074 -2.861668109893799 0.7765007019042969 0.0610121414065361 0.24631737172603607 -0.24066324532032013 0.10842756927013397 -10.238652229309082 0.5276362895965576 0.33546340465545654 0.23437878489494324 0.21122786402702332 0.1943131387233734 -2.267570734024048 -0.7258862853050232 0.10560239106416702 -0.18496465682983398 -0.06791365891695023 -0.2318294644355774 -23.071043014526367 -39.653564453125 -18.98359489440918 -1.810204267501831 63.882511138916016 2.749162197113037 -3.054446220397949 -10.793997764587402 -8.650202751159668 0.5739911198616028 -0.10400834679603577 -0.012363148853182793 26.583955764770508 -36.54911804199219 20.061105728149414 0.4661024212837219 62.493228912353516 -1.9627183675765991 4.928289413452148 -11.37728214263916 14.740945816040039
0.0013845041394233704 -2.03798059374094 -0.016428623348474503 -3.970130443572998 0.5052624940872192 5.387767791748047 -2.471536159515381 14.421250343322754 2.7649402618408203 2.7831766605377197 -9.419921875 0.5894812345504761 -5.188596248626709 15.099440574645996 -4.87894868850708 9.487058639526367 -23.621543884277344 -7.238980770111084 -0.16847436130046844 0.5399385094642639 -0.2945149540901184 0.036930594593286514 0.10053091496229172 0.04269971325993538 -0.19105806946754456 0.42877325415611267 0.014733654446899891 50.534122467041016 38.52445602416992 13.399991989135742 -26.643362045288086 -24.999025344848633 59.840023040771484 -0.216534823179245 -9.549266815185547 -1.359420895576477 0.2013789862394333 0.18387676775455475 0.2298690229654312 0.07625305652618408 -0.1559673696756363 -0.10351233184337616 0.026825951412320137 0.33319637179374695 0.5179190635681152 7.565892219543457 4.731551170349121 0.7108062505722046 -0.09523573517799377 0.18803177773952484 -0.4099264144897461 3.2864723205566406 1.2611384391784668 -0.0095363799482584 -0.3528185784816742 0.07312116026878357 -0.4078885614871979 10.308367729187012 0.8616300821304321 0.48760658502578735 -0.29008209705352783 0.15329743921756744 0.10108999162912369 1.8789926767349243 -0.7976880073547363 -0.06816072762012482 -0.05024073272943497 0.08386334776878357 -0.10797897726297379 -56.482749938964844 40.73366165161133 -25.884464263916016 25.47745132446289 -21.986494064331055 -54.945064544677734 -0.13043446838855743 -8.421073913574219 0.8799993395805359 -0.18811321258544922 -0.006303323432803154 -0.2480773627758026 -0.017030511051416397 0.08165310323238373 0.2806324064731598 0.3708803057670593 0.10290421545505524 -0.14589902758598328 -7.539917945861816 5.453000068664551 -0.5505743026733398 0.28853729367256165 -0.22208808362483978 0.21314245462417603 -3.034449815750122 1.0893996953964233 -0.23430979251861572 -0.06008477881550789 0.148520365357399 -0.0563875176012516 -10.984840393066406 0.6931113004684448 0.2642980217933655 -0.007663714233785868 0.009671855717897415 0.21313071250915527 -2.2425317764282227 -1.041028380393982 0.07444127649068832 -0.33368605375289917 -0.21626883745193481 -0.48995479941368103 -23.660499572753906 -40.07931137084961 -19.321481704711914 -0.061605509370565414 63.91486358642578 1.1179877519607544 -3.118889570236206 -10.814348220825195 -8.660639762878418 0.17442834377288818 0.02789122797548771 -0.036206770688295364 26.687898635864258 -35.162879943847656 20.15536880493164 0.7027584910392761 61.4646110534668 -2.0232186317443848 4.934764862060547 -10.949776649475098 14.725347518920898
-0.010907463729381561 -1.98628269135952 -0.019553210586309433 -32.84043884277344 16.427711486816406 -27.97115707397461 0.8462806344032288 18.935115814208984 4.6601881980896 1.762084722518921 -10.41091537475586 1.0490952730178833 -4.6518874168396 15.477506637573242 -1.106757640838623 9.183514595031738 -22.254011154174805 -1.3442935943603516 0.20956775546073914 0.602350115776062 0.7800793647766113 -0.06390802562236786 0.615504264831543 0.9486221075057983 -0.3361617922782898 0.20614346861839294 -0.3077767789363861 48.791717529296875 40.31144332885742 13.18394660949707 -26.831499099731445 -29.1920223236084 66.10220336914062 0.227768674492836 -9.16395378112793 -1.0478990077972412 -0.6062874794006348 0.17239834368228912 0.29104623198509216 0.9299044609069824 0.4524630904197693 1.116013526916504 0.8940138220787048 -0.1892281025648117 -0.4167899191379547 8.242717742919922 5.330428600311279 0.29975831508636475 -0.43058162927627563 0.990147054195404 -0.3338152766227722 2.7741847038269043 1.0623406171798706 -0.1909223049879074 -0.6385990381240845 0.02990073151886463 0.06371039897203445 10.577787399291992 0.1733924001455307 0.33099156618118286 0.4707323908805847 -0.53493732213974 -0.3254920542240143 1.8047564029693604 -0.24024741351604462 0.36702170968055725 -0.028257211670279503 -0.2561212480068207 0.4798341691493988 -51.418907165527344 38.65034866333008 -28.430673599243164 27.575395584106445 -29.55162811279297 -67.72789764404297 0.18326333165168762 -16.36052131652832 2.0794472694396973 0.2938903570175171 0.704656720161438 0.11230476200580597 -0.07519539445638657 0.14719215035438538 0.6045150756835938 0.3104422986507416 0.15619786083698273 0.047560859471559525 -7.623762130737305 4.858266353607178 -0.9790334701538086 -0.1251041740179062 -0.1070522740483284 -0.23662631213665009 -3.173036575317383 1.0831302404403687 0.17730556428432465 0.20839644968509674 -0.42800116539001465 0.5700770616531372 -10.78237533569336 0.3525416851043701 -0.28138870000839233 0.27558842301368713 0.20618852972984314 0.5263693928718567 -2.123466968536377 -0.4950895309448242 0.40135979652404785 -0.1373128443956375 -0.5794843435287476 -0.6922717094421387 -32.24153518676758 -43.45061492919922 -26.836362838745117 -5.810388088226318 72.4518051147461 6.794124603271484 -2.6671652793884277 -15.122750282287598 -9.765344619750977 -0.5732080936431885 0.4951525032520294 0.6996411681175232 38.069908142089844 -42.989070892333984 30.53518295288086 3.7687416076660156 74.05574035644531 -6.0142822265625 3.196714401245117 -12.585209846496582 10.108545303344727
0.002639554440975189 -1.915166713297367 -0.03675147891044617 3.5160717964172363 24.50225257873535 -1.8594681024551392 -2.475231170654297 19.390104293823242 8.835951805114746 -0.89400714635849 -11.599760055541992 2.5096096992492676 -2.5373568534851074 14.12995719909668 3.3249194622039795 4.227453708648682 -20.12782096862793 6.860024452209473 0.22868023812770844 -0.18574750423431396 -0.6483623385429382 -0.22817350924015045 -0.4028692841529846 0.08938706666231155 0.2683531939983368 1.0272583961486816 -0.5093555450439453 35.8951301574707 48.23203659057617 26.263696670532227 -28.666589736938477 -32.91628646850586 72.31893920898438 -0.9054628610610962 -8.6183443069458 -1.16521418094635 -0.04703513905405998 0.15421682596206665 -0.45525091886520386 -0.04736527055501938 0.5447335243225098 1.4403005838394165 0.7074008584022522 0.258157342672348 0.15888594090938568 8.17970085144043 4.6618523597717285 0.8331384062767029 0.4061034321784973 0.4204137325286865 -1.0603723526000977 3.326087474822998 1.7075761556625366 -0.11100348830223083 0.05177166685461998 -1.2474310398101807 -0.4330289363861084 9.562382698059082 0.47846609354019165 0.4020470380783081 0.4565558135509491 0.8480377793312073 -0.771874725818634 2.145029067993164 -0.7024806141853333 1.0943944454193115 -0.548081636428833 -0.5501760840415955 -0.22679395973682404 -51.06410217285156 35.77510070800781 -25.875946044921875 28.40452003479004 -36.238582611083984 -77.41567993164062 -0.026063190773129463 -21.90228843688965 2.212322473526001 0.1788930594921112 -0.017165007069706917 0.5837932825088501 -0.8640573024749756 0.6786459684371948 -0.0379660464823246 0.6301500797271729 -0.33255696296691895 -0.27932533621788025 -7.669976711273193 5.170251369476318 -1.8495113849639893 -0.4752831757068634 0.2759786546230316 -0.1848035454750061 -2.912736415863037 1.5274217128753662 -0.10124116390943527 0.9034311771392822 -1.2301305532455444 1.3286676406860352 -10.959351539611816 0.7607396245002747 0.09338315576314926 0.8592061996459961 -0.0935235545039177 0.8639587163925171 -2.3918983936309814 -1.8906540870666504 0.8101122975349426 -0.08004561811685562 -1.289443850517273 -0.3612086772918701 -39.222442626953125 -44.460872650146484 -32.84003448486328 -4.9838738441467285 78.29373931884766 6.06815242767334 -2.841317653656006 -19.357255935668945 -7.597131252288818 0.5051984786987305 0.3630383014678955 0.2195678949356079 50.17205047607422 -47.82731628417969 39.27802658081055 1.0577865839004517 80.2500228881836 -3.264484167098999 1.8516820669174194 -17.17226219177246 6.726219177246094
